# xmcd
#
# Track frame offsets:
# 182
# 8690
# 27140
# 56515
# 92685
# 111007
# 127057
# 150070
# 162360
# 180950
# 204867
# 216965
# 230972
# 248375
# 262265
# 280190
#
# Disc length: 3938 seconds
#
#
# Revision: 4
# Processed by: cddbd v1.5.1PL0 Copyright (c) Steve Scherf et al.
# Submitted via: FreeRIP 2.90 
#
DISCID=cb0f6010
DTITLE=Ella Fitzgerald - For The Love Of Ella Disc 1
DYEAR=0089
DGENRE=Blues
TTITLE0=A Tisket A Tasket
TTITLE1=Oh Lady Be Good
TTITLE2=Stompin' At The Savoy
TTITLE3=How High The Moon
TTITLE4=Mr Paganini
TTITLE5=Sweet Georgia Brown
TTITLE6=Mack The Knife
TTITLE7=Caravan
TTITLE8=A Night In Tunisia
TTITLE9=Rockin' In Rythm
TTITLE10=Honeysuckle Rose
TTITLE11=I Go tRhythm
TTITLE12=A Fine Romance
TTITLE13=On The Sunny Side Of The Street
TTITLE14=Party Blues
TTITLE15=Cottontail
EXTD=ID3G: 0\ncompilation 1989
EXTT0=
EXTT1=
EXTT2=
EXTT3=
EXTT4=
EXTT5=
EXTT6=
EXTT7=
EXTT8=
EXTT9=
EXTT10=
EXTT11=
EXTT12=
EXTT13=
EXTT14=
EXTT15=
PLAYORDER=
